<?xml version="1.0" encoding="utf-8"?>
<!-- Generator: Adobe Illustrator 23.0.2, SVG Export Plug-In . SVG Version: 6.00 Build 0)  -->
<svg version="1.1" id="レイヤー_1" xmlns="http://www.w3.org/2000/svg" xmlns:xlink="http://www.w3.org/1999/xlink" x="0px" y="0px"
	 viewBox="100 650 1400 300" style="enable-background:new 0 0 1600 1600;" xml:space="preserve">
<style type="text/css">
	.st0{fill:url(#SVGID_1_);}
	.st1{fill:#386789;}
	.st2{fill:url(#SVGID_2_);}
	.st3{fill:#FFFFFF;}
</style>
<g>
	<linearGradient id="SVGID_1_" gradientUnits="userSpaceOnUse" x1="137.3213" y1="800" x2="371.0773" y2="800">
		<stop  offset="0" style="stop-color:#386789"/>
		<stop  offset="0.5153" style="stop-color:#3B6E91"/>
		<stop  offset="0.7297" style="stop-color:#4179A0"/>
		<stop  offset="0.8876" style="stop-color:#4A86AD"/>
		<stop  offset="1" style="stop-color:#4E8BAF"/>
	</linearGradient>
	<path class="st0" d="M241.93,784.32l1.56,1.17l1.75,1.17l1.95,0.78l1.75,0.78l2.14,0.39l1.95,0.19h2.14l2.14-0.19l1.95-0.39
		l1.95-0.78l1.95-0.78l1.75-1.17l1.56-1.17l1.56-1.36l1.17-1.56l1.17-1.75l0.97-1.95l0.78-1.75l0.58-2.14l0.39-1.95v-1.95v-2.14
		l-0.39-1.95l-0.58-2.14l-0.78-1.75l-0.97-1.95l-1.17-1.56l-1.17-1.75l-1.56-1.36l-1.56-1.17l-1.75-1.17l-1.95-0.78l-1.95-0.58
		l-1.95-0.58l-2.14-0.19h-2.14l-1.95,0.19l-2.14,0.58l-1.75,0.58l-1.95,0.78l-1.75,1.17l-1.56,1.17l-1.56,1.36l-1.36,1.75
		l-1.17,1.56l-0.97,1.95l-0.78,1.75l-0.39,2.14l-0.39,1.95l-0.19,2.14l0.19,1.95l0.39,1.95l0.39,2.14l0.78,1.75l0.97,1.95l1.17,1.75
		l1.36,1.56L241.93,784.32z M219.53,925.94h-41.1h-3.12l-2.92-0.39l-3.12-0.58l-2.92-0.78l-2.73-0.97l-2.92-1.17l-2.53-1.36
		l-2.73-1.56l-2.34-1.95l-2.34-1.75l-2.14-2.14l-1.95-2.34l-1.95-2.34l-1.56-2.73l-1.56-2.53l-1.17-2.73l-1.17-2.92l-0.78-2.92
		l-0.58-2.92l-0.39-2.92l-0.19-3.12v-2.92l0.39-3.12l0.39-2.92l0.78-2.92l0.78-2.92l1.17-2.73l75.78-169.86l1.36-2.92l1.56-2.73
		l1.75-2.53l1.95-2.34l2.34-2.34l2.34-2.14l2.53-1.75l2.53-1.75l2.73-1.56l2.92-1.17l2.92-1.17l3.12-0.78l3.12-0.78l3.12-0.19
		l3.12-0.19h0.39l3.12,0.19l3.12,0.19l3.12,0.78l2.92,0.78l3.12,1.17l2.73,1.17l2.92,1.56l2.53,1.75l2.53,1.75l2.34,2.14l2.14,2.34
		l1.95,2.34l1.95,2.53l1.56,2.73l1.36,2.92h0.19l75.58,169.86l1.17,2.73l0.78,2.92l0.78,2.92l0.39,2.92l0.39,3.12v2.92l-0.19,3.12
		l-0.39,2.92l-0.58,2.92l-0.78,2.92l-1.17,2.92l-1.17,2.73l-1.56,2.53l-1.56,2.73l-1.95,2.34l-1.95,2.34l-2.14,2.14l-2.34,1.75
		l-2.34,1.95l-2.73,1.56l-2.53,1.36l-2.92,1.17l-2.73,0.97l-2.92,0.78l-3.12,0.58l-2.92,0.39h-2.92h-41.1l1.95-0.39l2.14-0.58
		l1.95-0.78l1.95-0.97l1.75-1.17l1.75-1.36l1.36-1.56l1.56-1.75l0.97-1.75l0.97-1.95l0.97-1.95l0.39-2.14l0.39-1.95v-2.14v-2.14
		l-0.39-2.14l-0.39-2.14l-0.97-1.95l-26.88-60.19l-0.78-1.95l-1.17-1.75l-1.56-1.75l-1.36-1.36l-1.75-1.56l-1.75-1.17l-1.95-0.97
		l-1.95-0.78l-2.14-0.39l-2.14-0.39l-2.14-0.19h-11.3l-2.14,0.19l-2.14,0.39l-2.14,0.39l-1.95,0.78l-1.95,0.97l-1.75,1.17
		l-1.75,1.56l-1.36,1.36l-1.56,1.75l-0.97,1.75l-0.97,1.95h-0.19l-26.69,60.19l-0.78,1.95l-0.58,2.14l-0.39,2.14v2.14v2.14
		l0.39,1.95l0.58,2.14l0.78,1.95l0.97,1.95l1.17,1.75l1.36,1.75l1.56,1.56l1.56,1.36l1.75,1.17l1.95,0.97l1.95,0.78l2.14,0.58
		L219.53,925.94z"/>
	<g>
		<path class="st1" d="M560.63,866.3h-89.86l-16.09,49.18h-32.79l71.04-218.59h45.54l71.04,218.59h-32.79L560.63,866.3z
			 M550.61,836.54L515.4,729.07l-34.91,107.47H550.61z"/>
		<path class="st1" d="M686.34,696.89v218.59h-31.88V696.89H686.34z"/>
		<path class="st1" d="M886.41,859.31V696.89h32.18v218.59h-32.18L778.64,753.06v162.42h-32.18V696.89h32.18L886.41,859.31z"/>
		<path class="st1" d="M966.58,806.19c-0.3-66.18,38.86-114.15,103.22-113.85c65.58,0.61,102.31,45.84,103.52,113.85
			c-0.61,67.4-39.16,113.85-103.52,113.85C1005.13,920.03,966.88,872.37,966.58,806.19z M1139.62,806.19
			c0-49.79-23.68-83.49-69.83-83.49c-46.14-0.3-69.83,34.3-69.83,83.49c0.3,50.4,23.68,83.49,69.83,83.79
			C1116.55,889.98,1139.32,855.37,1139.62,806.19z"/>
		<path class="st1" d="M1380.7,851.72c-0.31,17.61-5.16,34.61-17,46.14c-13.66,13.36-26.72,17.61-53.13,17.61h-89.26V696.89h85.62
			c18.82,0,33.39,4.86,45.84,16.7c12.14,11.23,17.61,26.72,17.61,43.11c0.31,14.27-5.46,27.32-13.97,35.52
			c-3.03,3.04-6.37,5.77-10.02,7.89c6.99,3.04,13.36,6.98,18.82,12.14C1374.93,821.97,1381,837.15,1380.7,851.72z M1253.49,726.64
			v59.51h53.43c10.32,0,19.12-3.95,24.89-11.23c4.55-5.46,6.07-12.45,6.07-19.43c0-7.28-2.43-14.57-7.89-20.04
			c-6.07-6.07-13.97-8.81-23.07-8.81H1253.49z M1348.52,851.72c0-8.5-2.43-17.31-8.2-23.68c-6.98-8.8-18.82-12.14-27.63-12.14h-59.2
			v69.52h57.07c12.14,0,20.34-2.73,28.54-10.62C1345.48,868.72,1348.52,860.83,1348.52,851.72z"/>
		<path class="st1" d="M1462.68,696.89v218.59h-31.88V696.89H1462.68z"/>
	</g>
</g>
<g>
	<linearGradient id="SVGID_2_" gradientUnits="userSpaceOnUse" x1="1860.1178" y1="1164.0144" x2="2093.8738" y2="1164.0144">
		<stop  offset="0" style="stop-color:#FFFFFF"/>
		<stop  offset="0.402" style="stop-color:#FDFDFD"/>
		<stop  offset="0.5693" style="stop-color:#F6F6F6"/>
		<stop  offset="0.6929" style="stop-color:#EAEAEA"/>
		<stop  offset="0.7951" style="stop-color:#D8D8D8"/>
		<stop  offset="0.8839" style="stop-color:#C1C1C1"/>
		<stop  offset="0.9623" style="stop-color:#A5A5A5"/>
		<stop  offset="1" style="stop-color:#959595"/>
	</linearGradient>
	<path class="st2" d="M1964.72,1148.33l1.56,1.17l1.75,1.17l1.95,0.78l1.75,0.78l2.14,0.39l1.95,0.19h2.14l2.14-0.19l1.95-0.39
		l1.95-0.78l1.95-0.78l1.75-1.17l1.56-1.17l1.56-1.36l1.17-1.56l1.17-1.75l0.97-1.95l0.78-1.75l0.58-2.14l0.39-1.95v-1.95v-2.14
		l-0.39-1.95l-0.58-2.14l-0.78-1.75l-0.97-1.95l-1.17-1.56l-1.17-1.75l-1.56-1.36l-1.56-1.17l-1.75-1.17l-1.95-0.78l-1.95-0.58
		l-1.95-0.58l-2.14-0.19h-2.14l-1.95,0.19l-2.14,0.58l-1.75,0.58l-1.95,0.78l-1.75,1.17l-1.56,1.17l-1.56,1.36l-1.36,1.75
		l-1.17,1.56l-0.97,1.95l-0.78,1.75l-0.39,2.14l-0.39,1.95l-0.19,2.14l0.19,1.95l0.39,1.95l0.39,2.14l0.78,1.75l0.97,1.95l1.17,1.75
		l1.36,1.56L1964.72,1148.33z M1942.32,1289.95h-41.1h-3.12l-2.92-0.39l-3.12-0.58l-2.92-0.78l-2.73-0.97l-2.92-1.17l-2.53-1.36
		l-2.73-1.56l-2.34-1.95l-2.34-1.75l-2.14-2.14l-1.95-2.34l-1.95-2.34l-1.56-2.73l-1.56-2.53l-1.17-2.73l-1.17-2.92l-0.78-2.92
		l-0.58-2.92l-0.39-2.92l-0.19-3.12v-2.92l0.39-3.12l0.39-2.92l0.78-2.92l0.78-2.92l1.17-2.73l75.78-169.86l1.36-2.92l1.56-2.73
		l1.75-2.53l1.95-2.34l2.34-2.34l2.34-2.14l2.53-1.75l2.53-1.75l2.73-1.56l2.92-1.17l2.92-1.17l3.12-0.78l3.12-0.78l3.12-0.19
		l3.12-0.19h0.39l3.12,0.19l3.12,0.19l3.12,0.78l2.92,0.78l3.12,1.17l2.73,1.17l2.92,1.56l2.53,1.75l2.53,1.75l2.34,2.14l2.14,2.34
		l1.95,2.34l1.95,2.53l1.56,2.73l1.36,2.92h0.19l75.58,169.86l1.17,2.73l0.78,2.92l0.78,2.92l0.39,2.92l0.39,3.12v2.92l-0.19,3.12
		l-0.39,2.92l-0.58,2.92l-0.78,2.92l-1.17,2.92l-1.17,2.73l-1.56,2.53l-1.56,2.73l-1.95,2.34l-1.95,2.34l-2.14,2.14l-2.34,1.75
		l-2.34,1.95l-2.73,1.56l-2.53,1.36l-2.92,1.17l-2.73,0.97l-2.92,0.78l-3.12,0.58l-2.92,0.39h-2.92h-41.1l1.95-0.39l2.14-0.58
		l1.95-0.78l1.95-0.97l1.75-1.17l1.75-1.36l1.36-1.56l1.56-1.75l0.97-1.75l0.97-1.95l0.97-1.95l0.39-2.14l0.39-1.95v-2.14v-2.14
		l-0.39-2.14l-0.39-2.14l-0.97-1.95l-26.88-60.19l-0.78-1.95l-1.17-1.75l-1.56-1.75l-1.36-1.36l-1.75-1.56l-1.75-1.17l-1.95-0.97
		l-1.95-0.78l-2.14-0.39l-2.14-0.39l-2.14-0.19h-11.3l-2.14,0.19l-2.14,0.39l-2.14,0.39l-1.95,0.78l-1.95,0.97l-1.75,1.17
		l-1.75,1.56l-1.36,1.36l-1.56,1.75l-0.97,1.75l-0.97,1.95h-0.19l-26.69,60.19l-0.78,1.95l-0.58,2.14l-0.39,2.14v2.14v2.14
		l0.39,1.95l0.58,2.14l0.78,1.95l0.97,1.95l1.17,1.75l1.36,1.75l1.56,1.56l1.56,1.36l1.75,1.17l1.95,0.97l1.95,0.78l2.14,0.58
		L1942.32,1289.95z"/>
	<g>
		<path class="st3" d="M2283.43,1230.31h-89.86l-16.09,49.18h-32.79l71.04-218.59h45.54l71.04,218.59h-32.79L2283.43,1230.31z
			 M2273.41,1200.56l-35.22-107.47l-34.91,107.47H2273.41z"/>
		<path class="st3" d="M2409.13,1060.91v218.59h-31.88v-218.59H2409.13z"/>
		<path class="st3" d="M2609.21,1223.33v-162.42h32.18v218.59h-32.18l-107.77-162.42v162.42h-32.18v-218.59h32.18L2609.21,1223.33z"
			/>
		<path class="st3" d="M2689.37,1170.2c-0.3-66.18,38.86-114.15,103.22-113.85c65.58,0.61,102.31,45.85,103.52,113.85
			c-0.6,67.4-39.16,113.85-103.52,113.85C2727.93,1284.05,2689.68,1236.38,2689.37,1170.2z M2862.42,1170.2
			c0-49.79-23.68-83.48-69.83-83.48c-46.14-0.31-69.82,34.3-69.82,83.48c0.3,50.4,23.68,83.48,69.82,83.79
			C2839.35,1253.99,2862.12,1219.38,2862.42,1170.2z"/>
		<path class="st3" d="M3103.49,1215.74c-0.31,17.61-5.16,34.61-17,46.15c-13.66,13.36-26.72,17.61-53.13,17.61h-89.26v-218.59
			h85.62c18.82,0,33.39,4.86,45.84,16.7c12.14,11.23,17.61,26.72,17.61,43.11c0.31,14.27-5.46,27.32-13.97,35.52
			c-3.03,3.03-6.37,5.77-10.02,7.89c6.99,3.03,13.36,6.98,18.82,12.14C3097.72,1185.98,3103.8,1201.17,3103.49,1215.74z
			 M2976.29,1090.66v59.51h53.43c10.32,0,19.12-3.95,24.89-11.23c4.55-5.46,6.07-12.44,6.07-19.43c0-7.28-2.43-14.57-7.89-20.04
			c-6.07-6.07-13.97-8.8-23.07-8.8H2976.29z M3071.31,1215.74c0-8.5-2.43-17.31-8.2-23.68c-6.98-8.8-18.82-12.14-27.63-12.14h-59.2
			v69.52h57.07c12.14,0,20.34-2.73,28.54-10.62C3068.28,1232.74,3071.31,1224.84,3071.31,1215.74z"/>
		<path class="st3" d="M3185.48,1060.91v218.59h-31.88v-218.59H3185.48z"/>
	</g>
</g>
</svg>
